<?xml version="1.0" encoding="iso-8859-1"?>
<!-- Uploaded to: SVG Repo, www.svgrepo.com, Generator: SVG Repo Mixer Tools -->
<svg fill="#000000" height="800px" width="800px" version="1.1" id="Layer_1" xmlns="http://www.w3.org/2000/svg" xmlns:xlink="http://www.w3.org/1999/xlink" 
	 viewBox="0 0 409.545 409.545" xml:space="preserve">
<g>
	<g>
		<g>
			<path d="M313.684,170.208l-35.299-17.315c1.84-3.394,3.487-6.908,4.928-10.525c1.629,1.628,3.878,2.634,6.362,2.634
				c4.971,0,9-4.029,9-9V79.165c0-4.971-4.029-9-9-9c-1.998,0-3.838,0.659-5.331,1.761c-10.736-29.44-35.051-52.4-65.327-61.274
				c0.1-0.536,0.158-1.087,0.158-1.652c0-4.971-4.029-9-9-9h-38c-4.971,0-9,4.029-9,9c0,0.565,0.059,1.116,0.158,1.652
				c-30.276,8.874-54.591,31.834-65.327,61.274c-1.493-1.102-3.333-1.761-5.331-1.761c-4.971,0-9,4.029-9,9v56.837
				c0,4.971,4.029,9,9,9c2.484,0,4.733-1.007,6.362-2.634c5.03,12.627,12.581,23.987,22.033,33.449h-12.344c-4.971,0-9,4.029-9,9
				v6.029c0,1.159,0.03,2.312,0.088,3.457c-8.138,7.548-13.603,17.993-14.766,29.885l-13.47,137.657
				c-1.191,12.181,2.841,24.368,11.063,33.434s19.959,14.266,32.198,14.266h152.669c12.24,0,23.976-5.2,32.198-14.266
				s12.255-21.252,11.063-33.435l-7.158-73.161c19.727-4.24,34.562-21.809,34.562-42.784v-36.398
				C338.175,192.929,328.562,177.506,313.684,170.208z M110.044,105.796c0-44.736,36.396-81.131,81.131-81.131
				s81.131,36.395,81.131,81.131c0,44.736-36.396,81.131-81.131,81.131S110.044,150.532,110.044,105.796z M145.614,193.817
				c13.648,7.094,29.143,11.11,45.561,11.11c16.417,0,31.913-4.016,45.563-11.11h27.8c-1.543,26.376-23.491,47.363-50.248,47.363
				h-46.229c-26.757,0-48.704-20.987-50.247-47.363H145.614z M203.455,279.666h-24.559l-18.839-20.97
				c2.627,0.308,5.294,0.484,8.003,0.484h46.229c2.709,0,5.376-0.176,8.004-0.484L203.455,279.666z M211.841,297.666v27.667
				c0,3.492-2.841,6.333-6.333,6.333h-28.667c-3.492,0-6.333-2.841-6.333-6.333v-27.667H211.841z M114.84,391.544
				c-7.276,0.001-13.977-2.968-18.865-8.358c-4.889-5.39-7.19-12.347-6.482-19.589l13.469-137.657
				c0.294-3.004,1.039-5.855,2.153-8.499c1.372,3.235,2.995,6.337,4.829,9.295c2.785,31.767,9.401,111.988,10.117,164.808H114.84z
				 M244.288,391.544H138.062v0.001c-0.558-41.772-4.751-100.309-7.897-139.188l26.074,29.023c-2.257,1.635-3.73,4.285-3.73,7.285
				v36.667c0,13.417,10.916,24.333,24.333,24.333h28.667c13.417,0,24.333-10.916,24.333-24.333v-36.667c0-3-1.473-5.65-3.73-7.285
				l26.073-29.023C249.039,291.236,244.846,349.772,244.288,391.544z M286.374,383.186c-4.888,5.39-11.588,8.359-18.865,8.359
				h-5.221c0.717-52.819,7.332-133.039,10.117-164.807c1.834-2.959,3.458-6.061,4.83-9.297c1.114,2.644,1.859,5.495,2.153,8.499
				l13.468,137.656C293.564,370.839,291.262,377.796,286.374,383.186z M320.176,245.899h-0.001c0,11.624-7.739,21.471-18.334,24.669
				l-4.538-46.381c-1.164-11.892-6.628-22.337-14.766-29.885c0.057-1.145,0.088-2.298,0.088-3.457v-6.029c0-4.971-4.029-9-9-9
				h-12.344c2.476-2.479,4.818-5.093,7.022-7.821l37.454,18.372c8.76,4.297,14.419,13.377,14.419,23.133V245.899z"/>
			<path d="M191.175,166.927c33.708,0,61.131-27.423,61.131-61.131s-27.423-61.131-61.131-61.131s-61.131,27.423-61.131,61.131
				S157.467,166.927,191.175,166.927z M191.175,62.665c23.782,0,43.131,19.349,43.131,43.131s-19.349,43.131-43.131,43.131
				s-43.131-19.348-43.131-43.131C148.044,82.014,167.393,62.665,191.175,62.665z"/>
			<path d="M171.421,105.796c0-10.893,8.861-19.754,19.754-19.754c4.971,0,9-4.029,9-9c0-4.971-4.029-9-9-9
				c-20.817,0-37.754,16.937-37.754,37.754c0,4.971,4.029,9,9,9C167.392,114.796,171.421,110.767,171.421,105.796z"/>
		</g>
	</g>
</g>
</svg>